<svg xmlns="http://www.w3.org/2000/svg" width="61.333" height="61.333" viewBox="0 0 61.333 61.333"><linearGradient id="a" gradientUnits="userSpaceOnUse" x1="9.834" y1="5.839" x2="51.499" y2="55.494"><stop offset="0" stop-color="#AE2471"/><stop offset="1" stop-color="#741244"/></linearGradient><path fill="url(#a)" d="M54.542 51.542c0 1.657-1.343 3-3 3h-41.75c-1.657 0-3-1.343-3-3v-41.75c0-1.657 1.343-3 3-3h41.75c1.657 0 3 1.343 3 3v41.75z"/><g fill="#fff"><path d="M23.736 24.207l-6.022 11.248h-3.824l-.096-11.248h2.884l-.16 7.615c-.011.404-.042.903-.095 1.498.191-.457.387-.893.589-1.307l3.84-7.807h2.884z"/><path d="M27.719 24.207l-2.931 11.248h-2.932l2.916-11.248h2.947z"/><path d="M37.661 26.782c0 .858-.191 1.664-.573 2.416-.479.944-1.163 1.569-2.056 1.876-.553.19-1.392.286-2.518.286h-1.688l-1.051 4.095h-2.932l2.916-11.248h3.855c.945 0 1.625.042 2.039.127.616.117 1.095.366 1.435.747.381.424.573.991.573 1.701zm-2.852.303c0-.286-.048-.524-.143-.714-.147-.296-.386-.492-.713-.587-.2-.063-.549-.096-1.045-.096h-.617l-1.067 4.19h.729c.719 0 1.237-.085 1.555-.254.392-.212.714-.582.968-1.111.222-.465.333-.941.333-1.428z"/><path d="M41.278 27.488l-2.056 7.966h-2.597l2.056-7.966h2.597zm.828-3.202l-.51 1.959h-2.596l.51-1.959h2.596z"/><path d="M49.913 27.488l-3.473 3.839 1.481 4.127h-2.597l-.749-2.358-1.96 2.358h-2.533l3.823-4.19-1.305-3.776h2.533l.653 2.167 1.721-2.167h2.406z"/></g></svg>